<?xml version="1.0" encoding="UTF-8"?>
<svg version="1.1" xmlns="http://www.w3.org/2000/svg" width="535" height="655">
<path d="M0 0 C1.78669482 2.32493248 2.08627865 4.06623406 2.55708122 6.957407 C2.73681417 8.0235989 2.91654713 9.0897908 3.10172653 10.18829155 C3.28706514 11.3636031 3.47240376 12.53891464 3.66335869 13.74984169 C3.86963449 14.9950597 4.0759103 16.24027771 4.28843689 17.5232296 C4.86093277 20.9808128 5.41824167 24.4407 5.97322297 27.90113139 C6.57191654 31.61674607 7.18484137 35.33001307 7.79621696 39.04355812 C8.85327917 45.47571682 9.9017581 51.90922642 10.94454765 58.34371376 C12.61224721 68.63293311 14.29743032 78.91925005 15.98538017 89.20516396 C16.56164228 92.71787499 17.13779246 96.23060437 17.7138958 99.74334145 C17.85734405 100.61793255 18.0007923 101.49252365 18.14858747 102.39361751 C19.17617817 108.66012785 20.20139796 114.92702345 21.22561455 121.19408607 C24.93086225 143.86249711 28.66915756 166.52510605 32.45168877 189.18074989 C32.57265474 189.90535967 32.69362072 190.62996944 32.81825233 191.37653708 C34.15487562 199.3826322 35.49281493 207.38850703 36.83135796 215.39428139 C39.15599912 229.29821455 41.47493804 243.20309933 43.79300857 257.10812926 C44.04188497 258.60101835 44.29077377 260.09390537 44.539675 261.58679032 C52.62494445 310.08197106 60.64910904 358.58730356 68.67776299 407.09188271 C68.81819739 407.9402915 68.9586318 408.78870028 69.10332179 409.66281843 C71.7921875 425.90714692 71.7921875 425.90714692 73.08659589 433.73183513 C73.32821562 435.19217496 73.56991751 436.6525012 73.81170523 438.11281323 C74.38291157 441.56294717 74.95306673 445.013246 75.52050018 448.46400261 C76.54112952 454.6574456 77.58009198 460.84627249 78.67007256 467.02791786 C78.86365978 468.14025291 79.05724701 469.25258797 79.25670052 470.39863014 C79.61432281 472.44681423 79.9789855 474.49378785 80.35233498 476.53916359 C80.50768337 477.43465416 80.66303177 478.33014473 80.82308769 479.25277138 C80.96119488 480.02241722 81.09930206 480.79206306 81.24159431 481.58503151 C81.43679603 484.2107532 81.12261014 486.30264615 80.40872002 488.83309364 C78.59405327 490.27820778 78.59405327 490.27820778 76.1904583 491.44515419 C75.29086388 491.89299767 74.39126945 492.34084114 73.4644146 492.80225563 C72.47923851 493.27004936 71.49406242 493.73784309 70.47903252 494.21981239 C69.46009911 494.721726 68.4411657 495.2236396 67.39135551 495.74076271 C64.11352973 497.35115133 60.82431064 498.93647605 57.53372002 500.52059364 C54.32312026 502.08571867 51.11505239 503.655944 47.90719414 505.22667885 C45.77555498 506.27006486 43.64293248 507.31144412 41.50936699 508.35088539 C35.35474267 511.3565342 29.25687842 514.44221588 23.21340752 517.66512489 C15.2396504 521.9152669 7.18186856 525.98852837 -0.90377998 530.02059364 C-1.5379295 530.33692568 -2.17207901 530.65325771 -2.82544518 530.97917557 C-8.07534582 533.59713889 -13.32783908 536.20988477 -18.58041573 538.82247353 C-23.14771974 541.09447783 -27.71405307 543.36841565 -32.27877998 545.64559364 C-32.91159889 545.96124275 -33.5444178 546.27689186 -34.19641304 546.60210609 C-42.45861038 550.72676186 -50.66997908 554.93396161 -58.82321358 559.27010536 C-69.24344095 564.79803484 -79.83782568 569.98464411 -90.40280342 575.22860146 C-104.39685685 582.17935476 -118.2656891 589.3311577 -132.05514717 596.67879677 C-134.8509242 598.16278548 -137.65643117 599.62598036 -140.46627998 601.08309364 C-141.38795967 601.57938271 -142.30963936 602.07567177 -143.25924873 602.58699989 C-144.59536201 603.27342567 -144.59536201 603.27342567 -145.95846748 603.97371864 C-146.73303291 604.38138466 -147.50759834 604.78905067 -148.30563545 605.20907021 C-151.39118335 606.05148213 -152.79269036 605.27493745 -155.59127998 603.83309364 C-157.88088112 602.39222396 -160.11382497 600.92610221 -162.34127998 599.39559364 C-163.68562808 598.48569849 -165.03070747 597.57688305 -166.37643623 596.66903114 C-167.07140205 596.19949013 -167.76636787 595.72994911 -168.48239326 595.24617958 C-171.88846447 592.96389895 -175.33232059 590.7412317 -178.77877998 588.52059364 C-180.21370704 587.59486079 -181.6486022 586.66907849 -183.08346748 585.74324989 C-184.18319893 585.03386269 -184.18319893 585.03386269 -185.30514717 584.31014442 C-189.34339771 581.70106542 -193.37340979 579.07932293 -197.40377998 576.45809364 C-198.23780342 575.91580116 -199.07182686 575.37350868 -199.93112373 574.8147831 C-203.33851208 572.59913013 -206.74564974 570.38309181 -210.15280342 568.16707802 C-222.96245286 559.83615584 -235.78320416 551.52269516 -248.61862373 543.23153114 C-256.7890864 537.9517333 -264.94484731 532.64990258 -273.09127998 527.33309364 C-290.12688573 516.21646413 -290.12688573 516.21646413 -307.24752998 505.23153114 C-319.05336199 497.71530522 -330.7655629 490.08673972 -342.38989449 482.29427528 C-349.00521891 477.86172224 -355.63522686 473.46689357 -362.40377998 469.27059364 C-363.0162458 468.88959511 -363.62871162 468.50859657 -364.25973701 468.11605263 C-366.6936801 466.60735268 -369.13226862 465.10827601 -371.5883503 463.63582802 C-373.57654365 462.44348251 -375.55283227 461.23308982 -377.52877998 460.02059364 C-378.12730782 459.67117714 -378.72583565 459.32176064 -379.34250069 458.96175575 C-381.83545569 457.416883 -383.38813047 456.40792225 -384.38351631 453.59139442 C-384.64903813 450.06628803 -383.80471983 447.88510054 -382.51315498 444.59481239 C-382.15633896 443.67076607 -382.15633896 443.67076607 -381.79231453 442.72805214 C-380.98756015 440.65388659 -380.16448545 438.58749882 -379.34127998 436.52059364 C-378.75667785 435.0256326 -378.1731307 433.53025865 -377.59054756 432.03450966 C-375.96212218 427.86551683 -374.31621716 423.70362927 -372.66580391 419.54329872 C-371.56281825 416.76130637 -370.46307722 413.97805086 -369.3642292 411.19442177 C-365.7772637 402.10877398 -362.18263844 393.02620305 -358.57881355 383.94722939 C-353.89813874 372.15339942 -349.25796577 360.34447832 -344.65377998 348.52059364 C-343.35049209 345.17420148 -342.04714306 341.82783316 -340.74362373 338.48153114 C-340.41360863 337.63430489 -340.08359352 336.78707863 -339.74357796 335.91417885 C-335.41906779 324.81763263 -331.06652788 313.73206829 -326.71627998 302.64559364 C-319.3900737 283.97320444 -312.07313873 265.29721873 -304.76559639 246.61751747 C-304.42270576 245.74190666 -304.07981514 244.86629585 -303.72653389 243.96415138 C-303.05077888 242.23475894 -302.37755749 240.50437414 -301.70700264 238.77295876 C-299.87750636 234.05965334 -297.99189181 229.37723038 -296.03805733 224.71395302 C-295.61638786 223.68848366 -295.1947184 222.6630143 -294.76027107 221.60647011 C-293.94981183 219.63769084 -293.12406867 217.67510621 -292.28032112 215.72036171 C-291.91396049 214.82138161 -291.54759987 213.9224015 -291.17013741 212.99617958 C-290.84075676 212.21498756 -290.51137611 211.43379555 -290.17201424 210.62893105 C-288.51417832 202.64758734 -291.53264696 193.28672194 -293.01559639 185.40633583 C-293.26397353 184.07329323 -293.51203706 182.74019216 -293.75981331 181.40703773 C-294.29065965 178.55360492 -294.82337046 175.70052894 -295.35747337 172.84770393 C-296.2019823 168.33499364 -297.04021842 163.82113213 -297.87726021 159.30703163 C-300.25712477 146.47700733 -302.6425292 133.64802847 -305.04049873 120.82137489 C-306.36727966 113.72417911 -307.68742838 106.62578306 -309.00021493 99.525985 C-309.83020703 95.03926209 -310.66831576 90.5541567 -311.51242661 86.07006979 C-312.03510541 83.28266125 -312.54998396 80.49385459 -313.06264496 77.70458794 C-313.4155877 75.79720694 -313.77779602 73.89154774 -314.14027596 71.98595619 C-314.34780998 70.84776436 -314.55534401 69.70957253 -314.76916695 68.53689003 C-314.95314852 67.5502776 -315.13713009 66.56366516 -315.32668686 65.54715538 C-315.60159777 62.72725901 -315.293797 60.56414758 -314.59127998 57.83309364 C-305.23059229 55.58747891 -295.83334936 53.67655667 -286.37008858 51.92000771 C-284.88064584 51.64141409 -283.39124861 51.36257711 -281.90189266 51.08351994 C-277.86289018 50.32744815 -273.82326383 49.57475982 -269.7835176 48.82267356 C-265.45207818 48.01564985 -261.12124056 47.20540869 -256.79033089 46.39554787 C-249.371558 45.00870986 -241.95242207 43.62382891 -234.53302193 42.24035072 C-223.91073094 40.25963244 -213.28899007 38.27597768 -202.66740358 36.29148543 C-189.97652292 33.92039895 -177.28553747 31.54987467 -164.59422493 29.18110085 C-163.62930097 29.00100214 -162.66437701 28.82090343 -161.67021292 28.63534719 C-160.70866225 28.45587897 -159.74711157 28.27641075 -158.756423 28.0915041 C-137.28484808 24.0839495 -115.81434879 20.07068424 -94.34484863 16.05203009 C-90.68225418 15.36648521 -87.01963993 14.68104614 -83.35702705 13.99559975 C-77.81680039 12.95874839 -72.27657714 11.92187873 -66.73636055 10.88497353 C-66.07566275 10.76131798 -65.41496496 10.63766243 -64.73424602 10.51025975 C-61.42272352 9.89046985 -58.11120874 9.2706388 -54.79970741 8.65073586 C-47.34700893 7.25562186 -39.89421747 5.86100667 -32.44126129 4.4672699 C-30.22736537 4.0531589 -28.01350841 3.63883957 -25.79969406 3.22429276 C-22.81650559 2.66569718 -19.8331832 2.10782244 -16.84982491 1.55013466 C-15.9895085 1.38886211 -15.12919209 1.22758957 -14.24280548 1.06142998 C-12.69947269 0.7732333 -11.15520106 0.48999258 -9.60979462 0.21313095 C-7.79639557 -0.12828807 -5.99669436 -0.54064308 -4.20012093 -0.96172142 C-1.59127998 -1.16690636 -1.59127998 -1.16690636 0 0 Z " fill="#010101" transform="translate(406.5912799835205,29.166906356811523)"/>
<path d="M0 0 C2.51817187 10.95573497 4.79552438 21.91484024 6.72064209 32.9899292 C7.45400102 37.20223219 8.20322006 41.4117095 8.953125 45.62109375 C9.11420746 46.5254718 9.27528992 47.42984985 9.44125366 48.3616333 C11.50275207 59.88161669 13.69321786 71.37731802 15.875 82.875 C19.19528177 100.38693867 22.47616476 117.90523777 25.6875 135.4375 C25.87372925 136.45419769 26.0599585 137.47089539 26.25183105 138.5184021 C26.98442967 142.51921341 27.71667304 146.52008944 28.44833374 150.52107239 C30.16565095 159.91140253 31.89418451 169.29965 33.625 178.6875 C33.90911288 180.2290826 34.19321129 181.77066787 34.47729492 183.31225586 C35.03721232 186.35059697 35.59719477 189.38892607 36.15722656 192.42724609 C37.75224785 201.08106032 39.34602851 209.73510317 40.94006348 218.38909912 C41.37930594 220.77372366 41.81855611 223.15834678 42.2578125 225.54296875 C42.40259033 226.32893433 42.54736816 227.1148999 42.6965332 227.92468262 C43.69058846 233.32094292 44.6850578 238.7171268 45.6796875 244.11328125 C46.9797495 251.16662451 48.27889982 258.22013526 49.57736206 265.27377319 C50.39736248 269.72803019 51.21784975 274.18219681 52.0390625 278.63623047 C54.49998874 291.98512782 56.9522025 305.33559721 59.394104 318.68798828 C59.80685789 320.9442265 60.21991534 323.2004092 60.63323975 325.45654297 C61.91207224 332.4372249 63.18619092 339.41873737 64.45367432 346.40148926 C64.85706339 348.62010892 65.26195191 350.83845652 65.668396 353.05651855 C66.23231563 356.13589732 66.79068074 359.21623376 67.34765625 362.296875 C67.5159343 363.20912842 67.68421234 364.12138184 67.85758972 365.0612793 C68.57958887 369.08575557 69.22409709 372.89102361 69 377 C22.2937813 396.73850866 22.2937813 396.73850866 4.4753418 404.18701172 C-1.8821507 406.8462269 -8.23281892 409.52030527 -14.57398987 412.21824646 C-18.09902796 413.7177004 -21.62568448 415.21332854 -25.15237427 416.70889282 C-26.87282915 417.43983198 -28.59246721 418.17269697 -30.31124878 418.90756226 C-32.70027989 419.92885939 -35.09200024 420.9435966 -37.484375 421.95703125 C-38.56015556 422.42002121 -38.56015556 422.42002121 -39.65766907 422.8923645 C-42.60486779 424.13446344 -44.76697235 425 -48 425 C-49.61457196 405.16828005 -50.3960419 385.33595395 -51.05505371 365.45336914 C-51.79517323 343.25280142 -52.80855726 321.07289859 -53.93441868 298.88912964 C-54.03303933 296.94320267 -54.13088417 294.99723642 -54.22871399 293.05126953 C-54.34841145 290.67714668 -54.46993415 288.30311483 -54.59367371 285.92919922 C-54.87937996 280.27692669 -55.06423445 274.65948304 -55 269 C-55.88034912 269.22139648 -56.76069824 269.44279297 -57.66772461 269.67089844 C-87.1590638 277.08180959 -87.1590638 277.08180959 -97.25 279.5 C-99.11398438 279.94859375 -99.11398438 279.94859375 -101.015625 280.40625 C-104 281 -104 281 -108 281 C-107.92090393 282.1359259 -107.92090393 282.1359259 -107.84020996 283.2947998 C-106.71264419 299.74086358 -105.80520127 316.1816855 -105.21875 332.65625 C-105.17362778 333.92364517 -105.17362778 333.92364517 -105.12759399 335.21664429 C-104.9432388 340.43687526 -104.76481094 345.65729732 -104.58856201 350.87780762 C-104.32507912 358.67915292 -104.0557371 366.48028443 -103.78125 374.28125 C-103.75157135 375.13270599 -103.7218927 375.98416199 -103.6913147 376.86141968 C-103.35161834 386.53526153 -102.95917564 396.20402726 -102.4609375 405.87109375 C-102.41495171 406.76458275 -102.36896591 407.65807175 -102.32158661 408.57863617 C-102.1012062 412.82185667 -101.87346879 417.06452745 -101.6348877 421.3067627 C-101.05672078 431.88146003 -100.89732429 442.41023976 -101 453 C-103.75402544 451.66780042 -105.85795682 450.40249611 -108.06640625 448.27734375 C-108.62851807 447.74359131 -109.19062988 447.20983887 -109.76977539 446.65991211 C-110.36137451 446.09151611 -110.95297363 445.52312012 -111.5625 444.9375 C-115.7833394 440.94460675 -120.02186531 437.07000775 -124.5625 433.4375 C-129.94475569 429.12693239 -134.96162268 424.48573156 -140 419.78515625 C-142.9621924 417.02333659 -145.9902134 414.34697566 -149.0546875 411.69921875 C-151.3366529 409.70593572 -153.57228574 407.66506973 -155.8125 405.625 C-159.21083552 402.55253227 -162.67590523 399.61557378 -166.25 396.75 C-172.00946426 392.09341188 -177.37948699 387.07165823 -182.77734375 382.0078125 C-185.82137013 379.15453222 -188.92966877 376.38811991 -192.08984375 373.6640625 C-194.36204511 371.68459874 -196.58459872 369.6541683 -198.8125 367.625 C-202.27530082 364.49577173 -205.80679003 361.49499651 -209.4375 358.5625 C-215.170343 353.92708695 -220.59362514 349.00900108 -226 344 C-223.84940483 336.17925471 -221.00219091 328.75294169 -217.9375 321.25 C-216.85090576 318.56641603 -215.76882947 315.88102164 -214.6875 313.1953125 C-214.39677109 312.47387054 -214.10604218 311.75242859 -213.8065033 311.00912476 C-209.94600764 301.40897097 -206.19825546 291.76453857 -202.4375 282.125 C-196.08721674 265.85677108 -189.68888469 249.60835871 -183.25 233.375 C-177.74582904 219.49669232 -172.26995981 205.60864287 -166.875 191.6875 C-161.610945 178.10576719 -156.28971296 164.54723925 -150.9375 151 C-150.57533386 150.08221771 -150.21316772 149.16443542 -149.84002686 148.21884155 C-149.13684163 146.437352 -148.43290355 144.6561594 -147.72814941 142.87528992 C-147.0606288 141.18703814 -146.39544862 139.49785881 -145.73278809 137.80769348 C-143.93867793 133.25609468 -141.99606062 128.81673131 -139.94140625 124.375 C-137.62260643 118.74941972 -137.73755475 114.87927541 -139 109 C-139.24927246 107.71109863 -139.49854492 106.42219727 -139.75537109 105.09423828 C-140.67642099 100.40467802 -141.68042838 95.73420291 -142.6875 91.0625 C-143.04869863 89.36750806 -143.40953497 87.67243887 -143.77001953 85.97729492 C-146.14303273 74.84931931 -148.5742203 63.73410248 -151.09643555 52.63891602 C-155.15958617 34.66757002 -155.15958617 34.66757002 -155 28 C-146.61191695 25.74348752 -138.18522477 24.05813838 -129.62609863 22.61038208 C-116.79889857 20.43612122 -104.01452398 18.07708826 -91.25 15.5625 C-77.0665618 12.77216941 -62.86554653 10.0947502 -48.64501953 7.5 C-47.08235534 7.2148516 -45.51969256 6.92969545 -43.95703125 6.64453125 C-43.19789429 6.50608795 -42.43875732 6.36764465 -41.65661621 6.2250061 C-36.72856807 5.32373645 -31.80636475 4.39518454 -26.88671875 3.44921875 C-25.65058838 3.21348145 -24.41445801 2.97774414 -23.14086914 2.73486328 C-20.88240397 2.30296181 -18.62497261 1.86559875 -16.36889648 1.42138672 C-15.37317627 1.23205566 -14.37745605 1.04272461 -13.3515625 0.84765625 C-12.50416504 0.68273682 -11.65676758 0.51781738 -10.78369141 0.34790039 C-7.1599463 -0.10498829 -3.65147028 -0.05277535 0 0 Z " fill="#FDFDFD" transform="translate(333,105)"/>
<path d="M0 0 C-1.0586935 29.35068682 -2.20456059 58.68411154 -4 88 C-6.32805317 89.16402658 -8.18480444 89.363703 -10.76953125 89.68359375 C-12.21755127 89.86656006 -12.21755127 89.86656006 -13.69482422 90.05322266 C-14.72365723 90.18003418 -15.75249023 90.3068457 -16.8125 90.4375 C-24.33436877 91.38803395 -31.82922716 92.40057405 -39.31640625 93.59375 C-43.20088819 94.18179385 -47.09179714 94.60255564 -51 95 C-51.19242917 85.26165836 -50.67594987 75.5531259 -50.20043945 65.83007812 C-50.06282537 63.00667554 -49.93054441 60.1830582 -49.79882812 57.359375 C-49.71125644 55.53123469 -49.62337608 53.70310914 -49.53515625 51.875 C-49.49656998 51.04758301 -49.4579837 50.22016602 -49.41822815 49.36767578 C-49.33777457 47.74810272 -49.24260514 46.12919083 -49.13243103 44.5113678 C-48.96703749 41.94944847 -48.96703749 41.94944847 -49.05519104 39.17893982 C-48.96917164 32.16307821 -48.96917164 32.16307821 -46.36235046 29.03469849 C-44.0468344 27.20058818 -41.68051674 25.67467246 -39.14453125 24.16015625 C-38.2501384 23.58591415 -37.35574554 23.01167206 -36.43424988 22.42002869 C-33.58090433 20.59897725 -30.69877299 18.83079097 -27.8125 17.0625 C-25.89043822 15.84908616 -23.9704885 14.63231991 -22.05273438 13.41210938 C-17.75925484 10.68763134 -13.44328338 8.00223109 -9.11709595 5.33010864 C-7.20821525 4.13081547 -5.33335291 2.89545651 -3.4675293 1.63061523 C-1 0 -1 0 0 0 Z " fill="#020202" transform="translate(295,188)"/>
<path d="M0 0 C0.33 0.99 0.66 1.98 1 3 C1.99 3.33 2.98 3.66 4 4 C4 7.78706732 3.5745952 11.26513121 3 15 C2.67 15 2.34 15 2 15 C1.66223316 13.2508503 1.32996329 11.50063855 1 9.75 C0.814375 8.77546875 0.62875 7.8009375 0.4375 6.796875 C0 4 0 4 0 0 Z " fill="#231D1E" transform="translate(95,110)"/>
</svg>
